<svg aria-label="Vector" display="block" role="presentation" viewBox="0 0 507 507" xmlns="http://www.w3.org/2000/svg"><g d="M 36.244 35.327 L 472.244 35.327 L 472.244 471.327 L 36.244 471.327 Z M 0 0 L 506.52 0 L 506.52 506.52 L 0 506.52 Z M 355.668 253.222 C 354.707 253.222 48.589 253.527 48.589 253.527 C 48.591 253.483 48.776 299.348 48.776 355.963 C 48.776 412.577 48.595 458.548 48.595 458.548 L 355.668 458.284 L 355.668 458.242 C 412.283 458.242 458.178 412.347 458.178 355.732 C 458.178 299.117 412.283 253.222 355.668 253.222 Z M 353.164 48.173 C 292.187 48.173 52.528 48.131 48.774 48.131 C 48.774 51.59 48.711 94.027 48.711 150.641 C 48.711 207.256 48.774 249.743 48.774 253.151 C 52.059 253.151 298.418 253.193 356.038 253.193 C 413.658 253.193 458.547 207.256 458.547 150.641 C 458.547 94.027 414.142 48.173 353.164 48.173 Z M 355.502 48.307 C 287.028 48.307 253.193 108.272 253.193 151.286 C 253.193 194.3 287.497 252.322 357.378 252.322 M 355.502 48.307 C 427.728 48.307 458.146 108.138 458.146 151.152 C 458.146 194.166 424.914 252.322 357.378 252.322" fill="transparent" height="506.52px" id="G40Sn6JuL" width="506.52px"><path d="M 0 0 L 436 0 L 436 436 L 0 436 Z" fill="transparent" height="436px" id="Co1zUvefr" transform="translate(36.244 35.327)" width="436px"/><g d="M 0 0 L 506.52 0 L 506.52 506.52 L 0 506.52 Z M 355.668 253.222 C 354.707 253.222 48.589 253.527 48.589 253.527 C 48.591 253.483 48.776 299.348 48.776 355.963 C 48.776 412.577 48.595 458.548 48.595 458.548 L 355.668 458.284 L 355.668 458.242 C 412.283 458.242 458.178 412.347 458.178 355.732 C 458.178 299.117 412.283 253.222 355.668 253.222 Z M 353.164 48.173 C 292.187 48.173 52.528 48.131 48.774 48.131 C 48.774 51.59 48.711 94.027 48.711 150.641 C 48.711 207.256 48.774 249.743 48.774 253.151 C 52.059 253.151 298.418 253.193 356.038 253.193 C 413.658 253.193 458.547 207.256 458.547 150.641 C 458.547 94.027 414.142 48.173 353.164 48.173 Z M 355.502 48.307 C 287.028 48.307 253.193 108.272 253.193 151.286 C 253.193 194.3 287.497 252.322 357.378 252.322 M 355.502 48.307 C 427.728 48.307 458.146 108.138 458.146 151.152 C 458.146 194.166 424.914 252.322 357.378 252.322" fill="transparent" height="506.52px" id="dKFEtN95k" transform="translate(0 0)" width="506.52px"><path d="M 0 0 L 506.52 0 L 506.52 506.52 L 0 506.52 Z" fill="transparent" height="506.52px" id="kswzZ0JdJ" width="506.52px"/><path d="M 307.079 0 C 306.118 0 0 0.305 0 0.305 C 0.002 0.26 0.187 46.125 0.187 102.74 C 0.187 159.355 0.007 205.325 0.007 205.325 L 307.079 205.061 L 307.079 205.02 C 363.694 205.02 409.589 159.125 409.589 102.51 C 409.589 45.895 363.694 0 307.079 0 Z" fill="transparent" height="205.32538600000004px" id="ZMvjY12he" stroke-dasharray="" stroke-linecap="round" stroke-linejoin="round" stroke-width="51.429" stroke="rgb(0, 0, 0)" transform="translate(48.589 253.222)" width="409.58895600000005px"/><path d="M 304.453 0.042 C 243.475 0.042 3.817 0 0.062 0 C 0.062 3.459 0 45.895 0 102.51 C 0 159.125 0.062 201.611 0.062 205.02 C 3.348 205.02 249.706 205.062 307.326 205.062 C 364.946 205.062 409.836 159.125 409.836 102.51 C 409.836 45.895 365.43 0.042 304.453 0.042 Z" fill="transparent" height="205.061808px" id="RS10WGdNf" stroke-dasharray="" stroke-linecap="round" stroke-linejoin="round" stroke-width="51.429" stroke="rgb(0, 0, 0)" transform="translate(48.711 48.131)" width="409.83611900000005px"/><path d="M 102.309 0 C 33.835 0 0 59.965 0 102.979 C 0 145.993 34.304 204.015 104.185 204.015" fill="transparent" height="204.015px" id="Glxbpw0jC" stroke-dasharray="" stroke-linecap="round" stroke-linejoin="round" stroke-width="51.429" stroke="rgb(0, 0, 0)" transform="translate(253.193 48.307)" width="104.18506700000003px"/><path d="M 0 0 C 72.226 0 102.644 59.831 102.644 102.845 C 102.644 145.859 69.412 204.015 1.876 204.015" fill="transparent" height="204.015px" id="D_W_rjCPO" stroke-dasharray="" stroke-linecap="round" stroke-linejoin="round" stroke-width="51.429" stroke="rgb(0, 0, 0)" transform="translate(355.502 48.307)" width="102.64393300000006px"/></g></g></svg>