<svg class="logo-svg svelte-1q0h92w" viewBox="0 0 200 52" xmlns="http://www.w3.org/2000/svg" style="clip-path: inset(0px 0% 0px 0px);"><g clip-path="url(#clip0_791_819)"><path d="M112.397 0.656128C112.409 0.882536 112.425 1.07198 112.425 1.25911C112.425 5.43612 112.418 9.61312 112.437 13.7901C112.439 14.2938 112.311 14.4416 111.794 14.4393C106.786 14.4208 101.778 14.4278 96.7695 14.4278C96.5235 14.4278 96.2775 14.4278 96.0013 14.4278V20.6725H111.474V30.743H96.0013V37.5145H112.488V51.2769H77.6514V0.656128H112.397Z" fill="white"></path><path d="M157.953 51.2861V0.644531C158.169 0.63298 158.371 0.614498 158.575 0.614498C162.905 0.614498 167.236 0.602946 171.566 0.616808C173.987 0.623739 176.347 0.956421 178.517 2.11619C181.638 3.78653 183.407 6.46184 184.142 9.83948C184.407 11.0547 184.609 12.3115 184.613 13.5498C184.653 21.9408 184.662 30.3318 184.613 38.7227C184.597 41.271 183.998 43.7268 182.645 45.9331C180.961 48.6824 178.454 50.3042 175.317 50.9349C174.186 51.1613 173.019 51.2815 171.868 51.293C167.382 51.3346 162.898 51.3115 158.412 51.3092C158.28 51.3092 158.148 51.2953 157.958 51.2838L157.953 51.2861ZM168.273 42.1766C169.194 42.1766 170.06 42.1835 170.928 42.1766C172.409 42.1604 173.506 41.4188 173.926 40.0049C174.142 39.2818 174.221 38.4917 174.223 37.7339C174.244 29.902 174.237 22.0702 174.233 14.236C174.233 13.7739 174.214 13.3118 174.165 12.8521C173.984 11.1679 172.954 9.96424 171.422 9.80714C170.394 9.70087 169.348 9.78635 168.271 9.78635V42.1766H168.273Z" fill="white"></path><path d="M26.517 16.9011H16.4567C16.4567 16.6816 16.4567 16.4622 16.4567 16.2427C16.4381 14.704 16.4869 13.1607 16.3847 11.6267C16.2617 9.78542 15.0805 8.85899 13.1589 8.94909C11.3813 9.03226 10.3439 10.125 10.3369 11.934C10.3323 13.3202 10.3532 14.7063 10.3323 16.0925C10.3091 17.5896 10.945 18.687 12.349 19.2068C13.8668 19.7682 15.4216 20.2279 16.9742 20.6923C19.1116 21.3322 21.1631 22.1432 23.015 23.4161C25.5052 25.1257 26.9464 27.5215 27.0972 30.4648C27.2782 34.0296 27.4221 37.6429 27.0461 41.1799C26.4497 46.8147 22.8596 50.4858 17.2782 51.5924C13.6115 52.3202 9.94705 52.1353 6.48221 50.5898C2.9872 49.0303 0.861416 46.2972 0.466893 42.5037C0.167519 39.6274 0.248744 36.7118 0.158236 33.7639H10.4762C10.4762 34.0157 10.4762 34.2583 10.4762 34.5032C10.4971 36.3884 10.4228 38.2805 10.5667 40.1565C10.7106 42.0093 12.0543 43.0605 13.8714 42.9843C15.5238 42.9127 16.7537 41.6374 16.7955 39.8515C16.8396 38.0056 16.8396 36.1551 16.7978 34.3091C16.7537 32.3454 15.6096 31.0747 13.3748 30.414C11.2861 29.7948 9.16265 29.2658 7.10881 28.5496C2.71567 27.0109 0.371743 23.8227 0.13735 19.2345C-0.0134973 16.2635 -0.0970434 13.2555 0.195368 10.3029C0.701286 5.17639 4.31233 1.47068 9.42721 0.442605C12.7807 -0.231999 16.1341 -0.190414 19.3808 0.950869C23.8087 2.508 26.2107 5.70776 26.5217 10.3607C26.6632 12.47 26.5658 14.5931 26.5727 16.7094C26.5727 16.7625 26.5402 16.8156 26.5147 16.8988L26.517 16.9011Z" fill="white"></path><path d="M50.9814 0.64917H60.5962C61.239 13.8825 61.8796 27.0812 62.5224 40.3099H63.1629C63.7199 27.0858 64.2746 13.8825 64.8292 0.65148H74.3349C72.8195 17.5512 71.3063 34.4048 69.7932 51.2838H55.5231C54.0123 34.4325 52.4992 17.579 50.9814 0.64917Z" fill="white"></path><path d="M131.371 30.9578H136.997V31.7341C136.997 35.7771 136.997 39.8201 136.997 43.8631C136.997 44.1126 136.997 44.3644 137.013 44.6139C137.097 45.9423 137.712 46.5638 138.897 46.5269C139.997 46.4922 140.643 45.7621 140.643 44.5169C140.647 40.9544 140.643 37.3943 140.643 33.8318C140.643 32.9262 140.643 32.0229 140.64 31.1172C140.633 29.5023 139.858 28.3795 138.403 27.7119C137.438 27.2706 136.463 26.8501 135.486 26.4412C132.754 25.2976 131.316 23.2091 131.262 20.3097C131.176 15.7492 131.172 11.184 131.253 6.62353C131.313 3.23203 133.915 0.644504 137.454 0.404234C138.805 0.311822 140.216 0.37882 141.531 0.674538C144.186 1.2729 145.95 3.23896 146.043 5.93738C146.187 10.1282 146.08 14.326 146.08 18.5654H140.506V17.9162C140.506 14.5478 140.506 11.1794 140.506 7.80871C140.506 7.57768 140.51 7.34665 140.492 7.11562C140.392 5.91658 139.761 5.37598 138.535 5.4268C137.526 5.46839 136.941 6.11527 136.941 7.23345C136.936 10.8537 136.936 14.4716 136.941 18.0918C136.941 19.6582 137.663 20.7579 139.097 21.4117C140.22 21.9246 141.341 22.4444 142.446 22.9942C145.175 24.3504 146.47 26.559 146.451 29.5971C146.421 34.4856 146.458 39.3765 146.44 44.2651C146.428 46.878 145.567 49.1121 143.251 50.5652C141.427 51.7088 139.392 51.8382 137.317 51.5748C135.159 51.2999 133.314 50.422 132.239 48.4652C131.78 47.6289 131.411 46.6239 131.395 45.6905C131.302 40.8412 131.337 35.9896 131.33 31.138C131.33 31.101 131.348 31.0641 131.376 30.9578H131.371Z" fill="white"></path><path d="M188.366 0.644531H199.893V5.82189H194.057V22.5345H199.471V27.6426H194.054V46.0856H200V51.2768H188.366V0.644531Z" fill="white"></path><path d="M122.28 30.9242H120.272V51.6706H117V1.10295C117.037 1.07754 117.07 1.03595 117.1 1.03595C118.935 1.03595 120.778 0.938919 122.607 1.06367C124.93 1.22077 126.413 2.84491 126.592 5.18754C126.619 5.55257 126.631 5.91759 126.631 6.28493C126.631 12.6382 126.631 18.9915 126.636 25.3448C126.636 26.8973 126.434 28.3782 125.338 29.6004C125.234 29.7159 125.232 29.9585 125.248 30.1364C125.698 35.4477 126.153 40.7591 126.61 46.0681C126.745 47.6206 126.889 49.1732 127.026 50.7257C127.051 51.0283 127.058 51.3333 127.077 51.6752H123.867C123.34 44.772 122.813 37.8712 122.284 30.9265L122.28 30.9242ZM120.279 27.7129C122.447 27.967 123.366 27.6828 123.354 25.2524C123.324 19.0008 123.345 12.7491 123.343 6.49979C123.343 6.211 123.359 5.9199 123.319 5.63574C123.229 4.97731 123.006 4.34198 122.273 4.20105C121.63 4.0786 120.955 4.11326 120.279 4.0786V27.7129Z" fill="white"></path><path d="M35.602 51.2953H31.1648V0.667603H35.602V51.2953Z" fill="white"></path><path d="M40.1785 0.646851H43.3927V48.285H51.7937V51.2722H40.1785V0.646851Z" fill="white"></path><path d="M153.054 51.293H150.995V0.639884C151.202 0.630643 151.392 0.614471 151.58 0.612161C152.058 0.60754 152.539 0.612161 153.054 0.612161V51.293Z" fill="white"></path></g><defs><clipPath id="clip0_791_819"><rect width="200" height="62" fill="white" transform="translate(1)"></rect></clipPath></defs></svg>