<svg xmlns="http://www.w3.org/2000/svg" xmlns:xlink="http://www.w3.org/1999/xlink" viewBox="0 0 106 19">
  <path d="M 73.778 18.457 C 72.456 18.457 71.238 18.236 70.121 17.793 C 69.005 17.35 68.03 16.726 67.196 15.922 C 66.379 15.102 65.742 14.151 65.286 13.068 C 64.83 11.985 64.602 10.796 64.602 9.5 C 64.602 8.204 64.83 7.015 65.286 5.932 C 65.742 4.849 66.379 3.906 67.196 3.102 C 68.03 2.282 69.005 1.65 70.121 1.207 C 71.238 0.764 72.456 0.543 73.778 0.543 C 75.115 0.543 76.333 0.764 77.434 1.207 C 78.55 1.65 79.517 2.282 80.335 3.102 C 81.153 3.906 81.79 4.849 82.246 5.932 C 82.717 7.015 82.954 8.204 82.954 9.5 C 82.954 10.796 82.717 11.993 82.246 13.093 C 81.79 14.175 81.153 15.119 80.335 15.922 C 79.517 16.726 78.55 17.35 77.434 17.793 C 76.333 18.236 75.115 18.457 73.778 18.457 Z M 73.778 14.421 C 74.407 14.421 74.989 14.307 75.523 14.077 C 76.073 13.847 76.546 13.519 76.938 13.093 C 77.347 12.65 77.662 12.125 77.882 11.518 C 78.118 10.911 78.236 10.238 78.236 9.5 C 78.236 8.745 78.118 8.073 77.882 7.482 C 77.662 6.875 77.347 6.358 76.938 5.932 C 76.546 5.489 76.073 5.153 75.523 4.923 C 74.989 4.693 74.407 4.578 73.778 4.578 C 73.149 4.578 72.559 4.693 72.009 4.923 C 71.474 5.153 71.002 5.489 70.593 5.932 C 70.2 6.358 69.885 6.875 69.65 7.482 C 69.429 8.073 69.32 8.745 69.32 9.5 C 69.32 10.238 69.429 10.911 69.65 11.518 C 69.885 12.125 70.2 12.65 70.593 13.093 C 71.002 13.519 71.474 13.847 72.009 14.077 C 72.559 14.307 73.149 14.421 73.778 14.421 Z" fill="rgb(0,0,0)"></path>
  <path d="M 86.589 18.112 C 86.398 18.112 86.243 17.958 86.243 17.768 L 86.243 1.232 C 86.243 1.042 86.398 0.887 86.589 0.887 L 89.89 0.887 C 90.014 0.887 90.129 0.954 90.19 1.062 L 95.687 10.7 C 95.753 10.816 95.921 10.816 95.988 10.699 L 101.465 1.062 C 101.527 0.954 101.642 0.887 101.766 0.887 L 105.068 0.887 C 105.259 0.887 105.413 1.041 105.414 1.231 L 105.459 17.767 C 105.46 17.958 105.305 18.112 105.113 18.112 L 101.51 18.112 C 101.318 18.112 101.163 17.958 101.163 17.768 L 101.163 9.552 C 101.163 9.375 100.928 9.313 100.84 9.467 L 96.966 16.24 C 96.905 16.348 96.79 16.415 96.666 16.415 L 94.991 16.415 C 94.866 16.415 94.751 16.348 94.69 16.24 L 90.887 9.553 C 90.799 9.399 90.563 9.46 90.563 9.637 L 90.563 17.768 C 90.563 17.958 90.408 18.112 90.217 18.112 Z" fill="rgb(0,0,0)"></path>
  <path d="M 30.495 18.112 C 30.304 18.112 30.149 17.958 30.149 17.768 L 30.149 15.18 C 30.149 15.103 30.175 15.028 30.223 14.968 L 38.066 5.029 C 38.156 4.916 38.075 4.751 37.93 4.751 L 30.699 4.751 C 30.508 4.751 30.353 4.596 30.353 4.406 L 30.353 1.232 C 30.353 1.042 30.508 0.887 30.699 0.887 L 43.66 0.887 C 43.851 0.887 44.006 1.042 44.006 1.232 L 44.006 3.821 C 44.006 3.897 43.98 3.971 43.933 4.032 L 36.166 13.971 C 36.078 14.084 36.159 14.249 36.303 14.249 L 43.999 14.249 C 44.191 14.249 44.346 14.403 44.346 14.594 L 44.346 17.768 C 44.346 17.958 44.191 18.112 43.999 18.112 Z" fill="rgb(0,0,0)"></path>
  <path d="M 22.358 18.112 C 22.167 18.112 22.012 17.958 22.012 17.768 L 22.012 1.232 C 22.012 1.042 22.167 0.887 22.358 0.887 L 26.34 0.887 C 26.532 0.887 26.687 1.042 26.687 1.232 L 26.687 17.768 C 26.687 17.958 26.532 18.112 26.34 18.112 Z" fill="rgb(0,0,0)"></path>
  <path d="M 7.942 18.112 C 7.661 18.112 7.408 17.944 7.301 17.685 L 0.567 1.363 C 0.474 1.136 0.641 0.887 0.887 0.887 L 5.223 0.887 C 5.364 0.887 5.492 0.973 5.544 1.104 L 9.82 11.751 C 9.878 11.895 10.083 11.895 10.141 11.752 L 14.496 1.102 C 14.549 0.972 14.676 0.887 14.817 0.887 L 18.725 0.887 C 18.971 0.887 19.139 1.136 19.045 1.363 L 12.289 17.686 C 12.182 17.944 11.929 18.112 11.648 18.112 Z" fill="rgb(0,0,0)"></path>
  <path d="M 55.746 18.457 C 54.378 18.457 53.108 18.244 51.937 17.817 C 50.783 17.374 49.777 16.751 48.92 15.947 C 48.079 15.143 47.419 14.2 46.941 13.117 C 46.463 12.018 46.224 10.812 46.224 9.5 C 46.224 8.188 46.463 6.99 46.941 5.907 C 47.419 4.808 48.079 3.857 48.92 3.053 C 49.777 2.249 50.783 1.634 51.937 1.207 C 53.108 0.764 54.378 0.543 55.746 0.543 C 57.345 0.543 58.772 0.822 60.025 1.38 C 61.23 1.909 62.242 2.66 63.061 3.633 C 63.135 3.721 63.124 3.851 63.039 3.928 L 60.242 6.446 C 60.15 6.528 60.008 6.519 59.926 6.428 C 59.405 5.854 58.836 5.41 58.219 5.095 C 57.56 4.751 56.818 4.578 55.993 4.578 C 55.284 4.578 54.633 4.693 54.04 4.923 C 53.446 5.153 52.935 5.489 52.506 5.932 C 52.094 6.358 51.764 6.875 51.517 7.482 C 51.286 8.089 51.171 8.762 51.171 9.5 C 51.171 10.238 51.286 10.911 51.517 11.518 C 51.764 12.125 52.094 12.65 52.506 13.093 C 52.935 13.519 53.446 13.847 54.04 14.077 C 54.633 14.307 55.284 14.421 55.993 14.421 C 56.818 14.421 57.56 14.249 58.219 13.905 C 58.836 13.59 59.405 13.146 59.926 12.572 C 60.008 12.481 60.15 12.472 60.242 12.554 L 63.038 15.071 C 63.124 15.148 63.134 15.279 63.059 15.367 C 62.24 16.325 61.229 17.076 60.025 17.62 C 58.772 18.178 57.345 18.457 55.746 18.457 Z" fill="rgb(0,0,0)"></path>
</svg>