<svg width="2617" height="1024" viewBox="0 0 2617 1024" fill="none" xmlns="http://www.w3.org/2000/svg">
<g clip-path="url(#clip0_614_1697)">
<path d="M0 275.091H82.7341L179.947 583.275H194.425L283.364 275.091H339.21L392.987 455.038L349.552 564.66L308.185 430.217L216.681 748.744H164.641L0 275.091Z" fill="#00C0F0"/>
<path d="M537.772 275.091H616.37L457.106 748.744H407.962L390.919 697.035L537.772 275.091Z" fill="#00C0F0"/>
<path d="M690.829 275.091H779.768L626.71 748.744H536.364L690.829 275.091Z" fill="#00C0F0"/>
<path d="M951.443 0H1034.18L792.841 748.744H705.971L951.443 0Z" fill="#00C0F0"/>
<path d="M983.129 427.487L1027.23 292.382C1027.23 292.382 1043.77 271.699 1122.37 273.022C1200.97 274.346 1224.38 299.911 1224.38 299.911L1200.97 381.983C1200.97 381.983 1184.42 354.433 1112.77 354.433C1024.5 354.433 983.129 427.487 983.129 427.487Z" fill="#00C0F0"/>
<path d="M1402.34 0H1493.35L1252.02 748.495H1063.13C1063.13 748.495 1025.9 744.442 970.721 704.398C915.537 664.355 915.537 635.481 915.537 635.481L956.904 497.563C956.904 497.563 959.055 632.585 1070 661.625C1154.14 683.715 1198.24 642.348 1198.24 642.348L1402.34 0Z" fill="#00C0F0"/>
<path d="M1574.02 0H1656.75L1415.41 748.744H1328.54L1574.02 0Z" fill="#00C0F0"/>
<path d="M1736.42 275.091L1587.5 748.744H1494.43L1651.62 275.091H1736.42Z" fill="#00C0F0"/>
<path d="M2317.63 347.483L2191.46 748.744H2098.39L2255.58 275.091H2616.96L2592.64 347.483H2317.63Z" fill="#00C0F0"/>
<path d="M2526.29 538.93L2553.26 459.009H2345.02L2319.45 538.93" fill="#00C0F0"/>
<path d="M2456.38 748.744L2483.35 668.823H2275.19L2249.54 748.744" fill="#00C0F0"/>
<path d="M2088.79 538.019L2115.76 458.181H1907.52L1881.95 538.019" fill="#00C0F0"/>
<path d="M1821.23 274.264L1578.49 1024H1670.9L1887.66 346.656H2155.22L2179.55 274.264H1821.23Z" fill="#00C0F0"/>
</g>
<defs>
<clipPath id="clip0_614_1697">
<rect width="2616.96" height="1024" fill="white"/>
</clipPath>
</defs>
</svg>
